<svg width="925" height="185" viewBox="0 0 925 185" fill="none" xmlns="http://www.w3.org/2000/svg">
<path d="M10.25 58C18 75.75 34.5 91.5 28.25 112C28 112 28 112.5 28 112.75C25.5 124.5 14.75 135.5 12.75 147.25C11.75 156.25 11.75 165.75 18.75 173.25C30.5 184.25 52 184.25 60.75 170C61.25 169.25 61.25 168.75 61.5 168.25C66.25 154 58.25 141 60.5 127C60.5 126.5 60.5 126 60.75 125.75C68.75 101.25 103.75 122.75 124.25 122.75C141.25 122.25 156.75 106 147.75 87.75C136.75 65.25 91 87.75 72.25 76C64 71 67.75 57 78 57.25C78.5 57.25 79 57.75 79.75 57.75C172.25 84.5 171.5 13.75 130 9.74998H127.75C104.75 12.75 100.5 32.25 71.5 26H71C60.5 24.5 51.75 17.25 42.5 12C42.25 11.75 41.75 11.75 41.5 11.25C16.75 0.499984 -2.16067e-07 38.25 10.25 58ZM199.902 173.75C207.152 179 215.402 182.75 224.902 179.75C227.652 179 230.152 177.5 232.652 176C236.902 173.75 240.902 171 245.152 168.75C249.152 166.75 253.402 165.5 258.152 166.5C264.902 167.75 271.402 170.25 276.902 174.25C287.402 181.75 298.402 182.25 309.902 178.25C319.652 175 326.152 168.25 328.652 158.75C330.402 152.75 331.152 146.75 332.152 140.75C331.652 134.5 330.902 130.25 328.402 126.5C320.902 113.5 306.652 112 297.402 117.25C292.402 120.25 287.902 124.25 283.152 127.75C273.402 135 262.902 138.75 250.902 136C246.902 135 242.902 133.25 239.152 131.5C228.902 125.5 222.652 117 221.152 105.5C219.402 92.5 220.902 80 225.902 68C228.402 61.75 230.152 55.5 232.152 49C233.652 42.75 233.652 36.5 232.652 30.25C231.652 26 229.652 22.75 225.652 20.75C219.402 17 212.652 16.75 205.402 17.5C191.902 18.75 184.902 29.75 182.402 38.25C182.152 40.25 181.902 42 182.152 44C183.402 56.75 185.902 69 190.152 81C193.152 88.5 194.152 96.25 193.902 104C193.652 107.75 193.152 111.25 191.902 114.75C189.902 119.75 187.402 124.5 185.402 129.25C183.152 135 181.902 140.5 182.902 146.5C185.402 157.75 190.652 167 199.902 173.75ZM511.117 49C509.867 48 508.117 47 506.867 46C500.617 41.75 494.117 37.75 489.367 32.25C482.867 24.75 474.867 20 464.867 18.25C461.367 17.75 457.867 18 453.617 17.75C449.367 18 444.367 18.5 439.617 18.75C426.367 19.25 413.617 21.75 401.367 27.5C392.617 31.75 384.117 35.75 376.617 42.5C366.367 51.5 366.367 64 372.117 75C374.367 78.75 376.367 82.75 378.117 86.75C380.617 94.5 379.367 101.75 373.867 108C372.867 109 372.117 110.5 371.367 111.75C368.867 116.75 368.617 122.25 368.367 128C368.367 133.25 370.117 138.25 372.867 142.75C376.867 149.75 383.867 153.5 390.867 156.75C397.617 159.5 402.867 164.25 407.867 170C410.367 172.25 412.367 174.75 414.617 177.25C417.117 180.25 420.117 181.25 424.117 181C426.367 180.75 428.867 180.5 431.117 180C435.867 178.5 440.117 176.5 445.117 175C448.867 173.75 452.617 172.5 456.367 172.25C463.117 171.75 469.867 171.5 476.617 171.75C486.617 172 494.117 167.75 500.617 160.75C503.617 157.75 505.867 154.5 507.867 151C510.867 146 511.867 140.5 510.367 134.75C509.117 130.25 508.117 125.75 506.867 121.5C504.117 110.5 504.367 100 510.117 90C511.867 86.75 513.867 83.75 515.617 80.5C516.117 79.5 516.867 78.5 517.117 77.5C518.117 71 518.617 65 517.367 58.75C516.617 55 514.367 51.5 511.117 49ZM468.117 95.75C467.367 99.5 465.867 103 465.117 107C464.117 111 463.117 115.25 462.617 119.5C462.367 121.5 462.867 123.75 463.617 125.75C464.867 129.25 465.117 132.75 463.867 136.25C462.117 141.25 458.867 145 453.867 145.25C448.367 145.75 443.617 143.5 440.117 138.75C439.117 136.75 438.117 134 438.117 132C438.117 122 432.367 114.75 426.367 107.75C424.367 105.5 422.367 102.5 420.617 100C417.617 96 416.117 91.5 416.117 86.25C417.367 81.25 417.867 76 419.617 70.75C422.367 63.5 428.367 59 436.117 57.5C446.117 55.25 458.367 58.75 464.617 69.75C469.117 78.25 470.117 86.75 468.117 95.75ZM694.564 49C693.314 48 691.564 47 690.314 46C684.064 41.75 677.564 37.75 672.814 32.25C666.314 24.75 658.314 20 648.314 18.25C644.814 17.75 641.314 18 637.064 17.75C632.814 18 627.814 18.5 623.064 18.75C609.814 19.25 597.064 21.75 584.814 27.5C576.064 31.75 567.564 35.75 560.064 42.5C549.814 51.5 549.814 64 555.564 75C557.814 78.75 559.814 82.75 561.564 86.75C564.064 94.5 562.814 101.75 557.314 108C556.314 109 555.564 110.5 554.814 111.75C552.314 116.75 552.064 122.25 551.814 128C551.814 133.25 553.564 138.25 556.314 142.75C560.314 149.75 567.314 153.5 574.314 156.75C581.064 159.5 586.314 164.25 591.314 170C593.814 172.25 595.814 174.75 598.064 177.25C600.564 180.25 603.564 181.25 607.564 181C609.814 180.75 612.314 180.5 614.564 180C619.314 178.5 623.564 176.5 628.564 175C632.314 173.75 636.064 172.5 639.814 172.25C646.564 171.75 653.314 171.5 660.064 171.75C670.064 172 677.564 167.75 684.064 160.75C687.064 157.75 689.314 154.5 691.314 151C694.314 146 695.314 140.5 693.814 134.75C692.564 130.25 691.564 125.75 690.314 121.5C687.564 110.5 687.814 100 693.564 90C695.314 86.75 697.314 83.75 699.064 80.5C699.564 79.5 700.314 78.5 700.564 77.5C701.564 71 702.064 65 700.814 58.75C700.064 55 697.814 51.5 694.564 49ZM651.564 95.75C650.814 99.5 649.314 103 648.564 107C647.564 111 646.564 115.25 646.064 119.5C645.814 121.5 646.314 123.75 647.064 125.75C648.314 129.25 648.564 132.75 647.314 136.25C645.564 141.25 642.314 145 637.314 145.25C631.814 145.75 627.064 143.5 623.564 138.75C622.564 136.75 621.564 134 621.564 132C621.564 122 615.814 114.75 609.814 107.75C607.814 105.5 605.814 102.5 604.064 100C601.064 96 599.564 91.5 599.564 86.25C600.814 81.25 601.314 76 603.064 70.75C605.814 63.5 611.814 59 619.564 57.5C629.564 55.25 641.814 58.75 648.064 69.75C652.564 78.25 653.564 86.75 651.564 95.75ZM831.762 125.75C825.262 128.25 819.762 131.5 814.762 136.25C810.012 140.75 803.262 142.25 797.012 141.5C786.262 140.25 776.012 137 769.512 128C769.012 127.25 768.512 126.75 768.012 126.25C765.012 122.75 761.012 120.25 756.512 118.75C747.262 115.5 739.512 117.75 734.762 126.25C731.012 133.5 730.262 141.75 733.262 149.75C738.012 160.75 745.512 170 756.762 176.25C764.012 180.25 771.512 181.5 780.262 181C785.262 178.25 790.762 176.5 795.762 174.75C802.762 171.75 810.512 171.25 818.012 173C822.012 174 825.762 175.25 829.512 176.25C834.762 177.75 840.012 179 845.512 179.75C848.262 180.25 851.012 180.25 854.012 180C862.512 179.25 868.512 173.5 870.262 165.75C872.012 159.75 871.262 154.75 868.762 149.25C863.762 137.5 864.012 125.75 869.762 114C872.512 109.75 874.512 104.75 877.012 100.25C880.012 95 881.762 89.25 881.262 83C881.012 80 881.012 77 880.762 74.25C880.012 67.75 877.012 62.5 873.512 57.25C870.262 52.25 867.762 47.5 865.762 42.25C862.762 32.25 855.762 24.75 846.012 21.25C840.512 19.5 835.012 18.5 829.512 17.5C817.512 15.5 806.012 17.5 796.262 24.75C788.512 30.75 782.012 37.25 776.012 45C771.512 51 766.012 55.5 758.762 58.5C754.762 60.25 751.262 62.25 747.262 64C740.012 68.25 735.762 74 734.762 82.5C733.762 91 736.262 98.25 744.012 102.75C747.262 105 751.512 107 755.012 108.75C761.512 111 767.512 114.5 772.762 119.5C776.012 123 780.512 125.5 785.012 127C792.512 129.5 799.512 128.25 806.512 126.25C813.512 124.25 818.762 120 821.512 113.5C823.012 110 824.512 105.75 825.512 101.75C826.512 98.75 828.012 96 831.012 93.75C835.012 90.5 840.762 91.5 843.262 96C846.262 100.25 847.262 105 846.262 110.25C844.512 117.5 839.512 123 831.762 125.75ZM841.012 58.75C840.012 61 838.762 63.25 836.762 64C833.262 66.5 829.012 68.75 824.762 70C817.762 72.25 812.762 74.25 806.512 78.25C804.012 79.5 802.762 81 799.762 82C798.012 82.25 796.762 82 796.262 82C792.012 81.5 788.262 78.5 788.012 75.5C787.512 73 790.262 69.5 794.012 68.25C797.012 66.75 800.262 66.25 803.262 65.75C806.262 65.25 809.262 65 812.012 64.75C818.762 64 824.762 62.25 830.012 57.75C831.762 56.5 833.262 55.5 834.762 54.25C836.262 53.25 838.012 53.25 839.512 54.75C840.762 55.75 841.762 57.25 841.012 58.75ZM914.541 155.35C915.066 155.35 915.741 155.35 916.341 155.575C917.391 155.65 918.216 156.1 918.741 157C919.341 157.825 919.641 158.8 919.866 159.775C919.941 160.525 920.091 161.125 920.166 161.65C920.316 162.625 920.916 163.525 921.666 164.275C921.891 164.425 922.191 164.8 922.341 164.95C924.216 166.9 924.216 169.825 922.341 171.925C922.191 172.225 921.891 172.375 921.666 172.675C920.841 173.425 920.466 174.4 920.766 175.6C920.841 175.825 920.916 176.125 920.916 176.35C921.216 177.4 921.141 178.525 920.466 179.35C920.091 180.25 919.266 180.7 918.291 180.775C917.391 181.075 916.491 180.85 915.666 180.625C915.366 180.475 914.916 180.325 914.541 180.25C913.341 179.725 912.291 179.8 911.166 180.475C909.441 181.45 907.566 181.3 905.916 180.25C904.191 179.35 903.291 177.55 903.666 175.6C903.741 175.075 903.816 174.475 904.041 173.95C904.191 173.2 904.116 172.45 903.516 171.775C903.066 171.325 902.616 170.8 902.091 170.35C900.216 168.025 900.591 164.875 903.066 163.3C903.816 162.7 904.566 162.4 905.241 162.025C906.366 161.5 907.116 160.75 907.641 159.625C908.691 156.85 910.941 155.575 913.866 155.35C914.016 155.35 914.391 155.35 914.541 155.35Z" fill="#2E2525"/>
</svg>
